<?xml version="1.0" encoding="UTF-8" standalone="no"?>
<!DOCTYPE svg PUBLIC "-//W3C//DTD SVG 1.1//EN" "http://www.w3.org/Graphics/SVG/1.1/DTD/svg11.dtd">
<!-- Created with Vectornator (http://vectornator.io/) -->
<svg height="100%" stroke-miterlimit="10" style="fill-rule:nonzero;clip-rule:evenodd;stroke-linecap:round;stroke-linejoin:round;" version="1.1" viewBox="0 0 1000 300" width="100%" xml:space="preserve" xmlns="http://www.w3.org/2000/svg" xmlns:vectornator="http://vectornator.io" xmlns:xlink="http://www.w3.org/1999/xlink">
<defs/>
<clipPath id="ArtboardFrame">
<rect height="300" width="1000" x="0" y="0"/>
</clipPath>
<g clip-path="url(#ArtboardFrame)" id="Layer-1" vectornator:layerName="Layer 1">
<path d="M0 0.000599251L150 0.000599251L150 150L0 150L0 0.000599251Z" fill="#3985d2" fill-rule="nonzero" opacity="1" stroke="none" vectornator:layerName="Rectangle 5"/>
<path d="M150 0.000599251L299.999 0.000599251L299.999 150L150 150L150 0.000599251Z" fill="#40ce6b" fill-rule="nonzero" opacity="1" stroke="none" vectornator:layerName="Rectangle 6"/>
<path d="M0 150L150 150L150 300L0 300L0 150Z" fill="#453e40" fill-rule="nonzero" opacity="1" stroke="none" vectornator:layerName="Rectangle 7"/>
<path d="M150 150L299.999 150L299.999 300L150 300L150 150Z" fill="#eeeaeb" fill-rule="nonzero" opacity="1" stroke="none" vectornator:layerName="Rectangle 8"/>
<path d="M20.1238 150L54.4213 150L54.4213 91.2657C61.0665 102.412 72.6419 109.272 86.7896 109.272C109.083 109.272 129.876 92.1232 129.876 53.5384C129.876 14.9537 109.083-2.19512 86.7896-2.19512C71.9988-2.19512 59.7803 5.52183 53.3495 17.526L53.3495-0.0515258L20.1238-0.0515258L20.1238 150ZM54.4213 57.8256L54.4213 49.6799C54.4213 32.7455 61.9239 22.885 74.1424 22.885C86.7896 22.885 94.2922 33.1742 94.2922 51.8235L94.2922 55.682C94.2922 72.8308 86.7896 82.477 74.1424 82.477C61.9239 82.477 54.4213 73.2595 54.4213 57.8256Z" fill="#fffbf7" fill-rule="nonzero" opacity="1" stroke="none" vectornator:layerName="Curve 1"/>
<path d="M225 109.275C257.723 109.275 282.321 89.5093 282.321 52.1735C282.321 14.8376 257.723-4.92848 225-4.92848C192.276-4.92848 167.678 14.8376 167.678 52.1735C167.678 89.5093 192.276 109.275 225 109.275ZM204.135 54.3697L204.135 49.9772C204.135 31.9682 212.261 22.3048 225 22.3048C237.738 22.3048 245.864 31.9682 245.864 49.9772L245.864 54.3697C245.864 72.3788 237.738 82.0422 225 82.0422C212.261 82.0422 204.135 72.3788 204.135 54.3697Z" fill="#fff7fd" fill-rule="nonzero" opacity="1" stroke="none" vectornator:layerName="Curve 2"/>
<path d="M20.1238 300L62.9808 300L62.9808 272.571L54.421 272.571L54.421 150L20.1238 150L20.1238 300Z" fill="#bab5b6" fill-rule="nonzero" opacity="1" stroke="none" vectornator:layerName="Curve 3"/>
<path d="M206.142 300L240.857 300L283.714 150L248.357 150L232.5 206.143L225.857 231.857L225.428 231.857L218.357 206.357L202.071 150L166.285 150L198.642 255L218.785 255L206.142 300Z" fill="#231f20" fill-rule="nonzero" opacity="1" stroke="none" vectornator:layerName="Curve 4"/>
<g opacity="1" vectornator:layerName="Group 1">
<path d="M299.999 300L349.187 300L349.187 215.766C358.717 231.752 375.318 241.59 395.608 241.59C427.58 241.59 457.4 216.996 457.4 161.66C457.4 106.324 427.58 81.7302 395.608 81.7302C374.396 81.7302 356.873 92.7974 347.65 110.013L347.65 84.8044L299.999 84.8044L299.999 300ZM349.187 167.808L349.187 156.126C349.187 131.84 359.947 117.699 377.47 117.699C395.608 117.699 406.368 132.455 406.368 159.201L406.368 164.734C406.368 189.328 395.608 203.162 377.47 203.162C359.947 203.162 349.187 189.943 349.187 167.808Z" fill="#000000" fill-rule="nonzero" opacity="1" stroke="none"/>
<path d="M520.729 241.59C544.093 241.59 560.079 231.445 568.379 213.922L568.379 238.516L616.03 238.516L616.03 144.752C616.03 104.479 591.436 81.7302 547.167 81.7302C506.587 81.7302 477.075 100.79 473.386 139.526L523.188 139.526C523.495 125.077 531.796 118.313 545.63 118.313C558.849 118.313 566.842 124.462 566.842 138.603L566.842 139.218L516.732 152.13C493.061 158.278 472.771 172.42 472.771 199.165C472.771 222.53 488.449 241.59 520.729 241.59ZM521.958 192.71C521.958 185.024 527.184 178.568 539.481 175.494L566.842 168.731L566.842 177.646C566.842 195.169 558.542 207.773 541.018 207.773C529.644 207.773 521.958 202.24 521.958 192.71Z" fill="#000000" fill-rule="nonzero" opacity="1" stroke="none"/>
<path d="M684.585 178.876L711.945 183.794C719.938 185.331 725.164 189.021 725.164 195.169C725.164 201.932 719.016 206.544 706.719 206.544C691.348 206.544 683.355 199.473 683.355 187.791L634.167 187.791C635.397 213.922 654.765 241.59 706.104 241.59C748.836 241.59 774.352 222.53 774.352 191.48C774.352 161.66 751.295 149.056 725.472 144.444L698.111 139.526C690.118 137.988 684.892 134.299 684.892 128.151C684.892 121.388 691.348 116.776 703.645 116.776C719.016 116.776 726.702 123.847 726.702 135.529L775.889 135.529C774.659 109.398 755.292 81.7302 703.952 81.7302C661.221 81.7302 635.705 100.79 635.705 131.84C635.705 161.66 658.761 174.264 684.585 178.876Z" fill="#000000" fill-rule="nonzero" opacity="1" stroke="none"/>
<path d="M842.907 178.876L870.268 183.794C878.261 185.331 883.487 189.021 883.487 195.169C883.487 201.932 877.338 206.544 865.042 206.544C849.67 206.544 841.678 199.473 841.678 187.791L792.49 187.791C793.72 213.922 813.087 241.59 864.427 241.59C907.158 241.59 932.675 222.53 932.675 191.48C932.675 161.66 909.618 149.056 883.794 144.444L856.434 139.526C848.441 137.988 843.215 134.299 843.215 128.151C843.215 121.388 849.67 116.776 861.967 116.776C877.338 116.776 885.024 123.847 885.024 135.529L934.212 135.529C932.982 109.398 913.614 81.7302 862.275 81.7302C819.543 81.7302 794.027 100.79 794.027 131.84C794.027 161.66 817.084 174.264 842.907 178.876Z" fill="#000000" fill-rule="nonzero" opacity="1" stroke="none"/>
<path d="M945.894 238.516L1000 238.516L1000 185.639L945.894 185.639L945.894 238.516Z" fill="#000000" fill-rule="nonzero" opacity="1" stroke="none"/>
</g>
<path d="M248.357 150L283.715 150L326.572 0.000599251L291.215 0.000599251L248.357 150Z" fill="#fff7fd" fill-rule="nonzero" opacity="1" stroke="none" vectornator:layerName="Curve 5"/>
<path d="M280.734 36.6849L263.587 96.6942C275.197 87.1166 282.318 72.1973 282.318 52.1724C282.318 46.6161 281.769 41.4557 280.734 36.6849Z" fill="#40ce6b" fill-rule="nonzero" opacity="1" stroke="none" vectornator:layerName="Curve 6"/>
</g>
</svg>
